<mxfile>
    <diagram id="KO2POvDPO0qZFVthWtdv" name="woaw">
        <mxGraphModel dx="437" dy="790" grid="1" gridSize="10" guides="1" tooltips="1" connect="1" arrows="1" fold="1" page="1" pageScale="1" pageWidth="1169" pageHeight="827" background="none" math="0" shadow="1">
            <root>
                <mxCell id="ulk52OMEHFEX0CLhAPHe-0"/>
                <mxCell id="ulk52OMEHFEX0CLhAPHe-1" parent="ulk52OMEHFEX0CLhAPHe-0"/>
                <mxCell id="lntMmmNjdpIhoGcwGcDj-26" style="edgeStyle=orthogonalEdgeStyle;curved=0;rounded=1;sketch=0;orthogonalLoop=1;jettySize=auto;html=1;exitX=0.25;exitY=1;exitDx=0;exitDy=0;entryX=0.5;entryY=0;entryDx=0;entryDy=0;" parent="ulk52OMEHFEX0CLhAPHe-1" source="ulk52OMEHFEX0CLhAPHe-2" target="lntMmmNjdpIhoGcwGcDj-5" edge="1">
                    <mxGeometry relative="1" as="geometry"/>
                </mxCell>
                <mxCell id="lntMmmNjdpIhoGcwGcDj-33" style="edgeStyle=orthogonalEdgeStyle;curved=0;rounded=1;sketch=0;orthogonalLoop=1;jettySize=auto;html=1;exitX=0.75;exitY=1;exitDx=0;exitDy=0;entryX=0.5;entryY=0;entryDx=0;entryDy=0;" parent="ulk52OMEHFEX0CLhAPHe-1" source="ulk52OMEHFEX0CLhAPHe-2" target="lntMmmNjdpIhoGcwGcDj-13" edge="1">
                    <mxGeometry relative="1" as="geometry"/>
                </mxCell>
                <mxCell id="ulk52OMEHFEX0CLhAPHe-2" value="TOK_PIPE&lt;br&gt;t_token" style="whiteSpace=wrap;html=1;strokeColor=#FF66B3;rounded=1;" parent="ulk52OMEHFEX0CLhAPHe-1" vertex="1">
                    <mxGeometry x="735" y="320" width="120" height="60" as="geometry"/>
                </mxCell>
                <mxCell id="ulk52OMEHFEX0CLhAPHe-3" value="&lt;font style=&quot;font-size: 27px&quot;&gt;&lt;font color=&quot;#b3ff66&quot; style=&quot;font-size: 27px&quot;&gt;ls -l&lt;/font&gt; &lt;font color=&quot;#ff66b3&quot; style=&quot;font-size: 27px&quot;&gt;|&lt;/font&gt; &lt;font color=&quot;#b3ff66&quot; style=&quot;font-size: 27px&quot;&gt;grep grw&lt;/font&gt; &lt;font color=&quot;#ff66b3&quot; style=&quot;font-size: 27px&quot;&gt;|&lt;/font&gt; &lt;font color=&quot;#b3ff66&quot; style=&quot;font-size: 27px&quot;&gt;wc -l&lt;/font&gt; &lt;font color=&quot;#66ffff&quot; style=&quot;font-size: 27px&quot;&gt;&amp;gt; lsfile&lt;/font&gt; &lt;font color=&quot;#ff6666&quot; style=&quot;font-size: 27px&quot;&gt;;&lt;/font&gt; &lt;font color=&quot;#66ffff&quot; style=&quot;font-size: 27px&quot;&gt;&amp;lt; lsfile&lt;/font&gt; &lt;font color=&quot;#b3ff66&quot; style=&quot;font-size: 27px&quot;&gt;cat&lt;/font&gt; &lt;font color=&quot;#ff66b3&quot; style=&quot;font-size: 27px&quot;&gt;|&lt;/font&gt; &lt;font color=&quot;#b3ff66&quot; style=&quot;font-size: 27px&quot;&gt;rev&lt;/font&gt; &lt;font color=&quot;#66ffff&quot; style=&quot;font-size: 27px&quot;&gt;&amp;gt; itit &amp;gt; utut &amp;gt;&amp;gt; otot&lt;/font&gt; &lt;font color=&quot;#ff6666&quot; style=&quot;font-size: 27px&quot;&gt;;&lt;/font&gt; &lt;font color=&quot;#b3ff66&quot; style=&quot;font-size: 27px&quot;&gt;diff otot toto&lt;/font&gt;&lt;font style=&quot;font-size: 27px&quot;&gt;&lt;font color=&quot;#66ffff&quot; style=&quot;font-size: 27px&quot;&gt; &amp;gt;&amp;gt; diff&lt;/font&gt;&lt;br&gt;&lt;/font&gt;&lt;/font&gt;" style="text;html=1;strokeColor=none;fillColor=none;align=center;verticalAlign=middle;whiteSpace=wrap;" parent="ulk52OMEHFEX0CLhAPHe-1" vertex="1">
                    <mxGeometry width="1160" height="140" as="geometry"/>
                </mxCell>
                <mxCell id="lntMmmNjdpIhoGcwGcDj-0" value="&lt;font style=&quot;font-size: 16px&quot;&gt;ls -l&lt;br&gt;t_command&lt;br&gt;&lt;/font&gt;" style="whiteSpace=wrap;html=1;strokeColor=#B3FF66;rounded=1;" parent="ulk52OMEHFEX0CLhAPHe-1" vertex="1">
                    <mxGeometry x="10" y="320" width="120" height="60" as="geometry"/>
                </mxCell>
                <mxCell id="lntMmmNjdpIhoGcwGcDj-1" value="&lt;font style=&quot;font-size: 16px&quot;&gt;grep -grw&lt;br&gt;t_command&lt;br&gt;&lt;/font&gt;" style="whiteSpace=wrap;html=1;strokeColor=#B3FF66;rounded=1;" parent="ulk52OMEHFEX0CLhAPHe-1" vertex="1">
                    <mxGeometry x="120" y="420" width="120" height="60" as="geometry"/>
                </mxCell>
                <mxCell id="lntMmmNjdpIhoGcwGcDj-2" value="&lt;font style=&quot;font-size: 16px&quot;&gt;wc -l&lt;br&gt;t_command&lt;br&gt;&lt;/font&gt;" style="whiteSpace=wrap;html=1;strokeColor=#B3FF66;rounded=1;" parent="ulk52OMEHFEX0CLhAPHe-1" vertex="1">
                    <mxGeometry x="368" y="520" width="120" height="60" as="geometry"/>
                </mxCell>
                <mxCell id="lntMmmNjdpIhoGcwGcDj-38" style="edgeStyle=orthogonalEdgeStyle;curved=0;rounded=1;sketch=0;orthogonalLoop=1;jettySize=auto;html=1;exitX=0.25;exitY=1;exitDx=0;exitDy=0;entryX=0.5;entryY=0;entryDx=0;entryDy=0;" parent="ulk52OMEHFEX0CLhAPHe-1" source="lntMmmNjdpIhoGcwGcDj-5" target="lntMmmNjdpIhoGcwGcDj-6" edge="1">
                    <mxGeometry relative="1" as="geometry"/>
                </mxCell>
                <mxCell id="lntMmmNjdpIhoGcwGcDj-5" value="&lt;font style=&quot;font-size: 16px&quot;&gt;&amp;lt; lsfile&lt;br&gt;t_redir&lt;br&gt;&lt;/font&gt;" style="whiteSpace=wrap;html=1;strokeColor=#66FFFF;rounded=1;" parent="ulk52OMEHFEX0CLhAPHe-1" vertex="1">
                    <mxGeometry x="635" y="420" width="120" height="60" as="geometry"/>
                </mxCell>
                <mxCell id="lntMmmNjdpIhoGcwGcDj-6" value="&lt;font style=&quot;font-size: 16px&quot;&gt;cat&lt;br&gt;t_command&lt;/font&gt;" style="whiteSpace=wrap;html=1;strokeColor=#B3FF66;rounded=1;" parent="ulk52OMEHFEX0CLhAPHe-1" vertex="1">
                    <mxGeometry x="520" y="520" width="120" height="60" as="geometry"/>
                </mxCell>
                <mxCell id="lntMmmNjdpIhoGcwGcDj-18" style="edgeStyle=orthogonalEdgeStyle;curved=0;rounded=1;sketch=0;orthogonalLoop=1;jettySize=auto;html=1;exitX=0.75;exitY=1;exitDx=0;exitDy=0;entryX=0.5;entryY=0;entryDx=0;entryDy=0;" parent="ulk52OMEHFEX0CLhAPHe-1" source="ulk52OMEHFEX0CLhAPHe-4" target="ulk52OMEHFEX0CLhAPHe-5" edge="1">
                    <mxGeometry relative="1" as="geometry"/>
                </mxCell>
                <mxCell id="lntMmmNjdpIhoGcwGcDj-35" style="edgeStyle=orthogonalEdgeStyle;curved=0;rounded=1;sketch=0;orthogonalLoop=1;jettySize=auto;html=1;exitX=0.25;exitY=1;exitDx=0;exitDy=0;entryX=0.5;entryY=0;entryDx=0;entryDy=0;" parent="ulk52OMEHFEX0CLhAPHe-1" source="ulk52OMEHFEX0CLhAPHe-4" target="lntMmmNjdpIhoGcwGcDj-0" edge="1">
                    <mxGeometry relative="1" as="geometry"/>
                </mxCell>
                <mxCell id="ulk52OMEHFEX0CLhAPHe-4" value="TOK_PIPE&lt;br&gt;t_token" style="whiteSpace=wrap;html=1;strokeColor=#FF66B3;rounded=1;" parent="ulk52OMEHFEX0CLhAPHe-1" vertex="1">
                    <mxGeometry x="100" y="220" width="120" height="60" as="geometry"/>
                </mxCell>
                <mxCell id="lntMmmNjdpIhoGcwGcDj-25" style="edgeStyle=orthogonalEdgeStyle;curved=0;rounded=1;sketch=0;orthogonalLoop=1;jettySize=auto;html=1;exitX=0.75;exitY=1;exitDx=0;exitDy=0;entryX=0.5;entryY=0;entryDx=0;entryDy=0;" parent="ulk52OMEHFEX0CLhAPHe-1" source="ulk52OMEHFEX0CLhAPHe-5" target="lntMmmNjdpIhoGcwGcDj-10" edge="1">
                    <mxGeometry relative="1" as="geometry"/>
                </mxCell>
                <mxCell id="lntMmmNjdpIhoGcwGcDj-36" style="edgeStyle=orthogonalEdgeStyle;curved=0;rounded=1;sketch=0;orthogonalLoop=1;jettySize=auto;html=1;exitX=0.25;exitY=1;exitDx=0;exitDy=0;entryX=0.5;entryY=0;entryDx=0;entryDy=0;" parent="ulk52OMEHFEX0CLhAPHe-1" source="ulk52OMEHFEX0CLhAPHe-5" target="lntMmmNjdpIhoGcwGcDj-1" edge="1">
                    <mxGeometry relative="1" as="geometry"/>
                </mxCell>
                <mxCell id="ulk52OMEHFEX0CLhAPHe-5" value="TOK_PIPE&lt;br&gt;t_token" style="whiteSpace=wrap;html=1;strokeColor=#FF66B3;rounded=1;" parent="ulk52OMEHFEX0CLhAPHe-1" vertex="1">
                    <mxGeometry x="190" y="320" width="120" height="60" as="geometry"/>
                </mxCell>
                <mxCell id="lntMmmNjdpIhoGcwGcDj-15" style="edgeStyle=orthogonalEdgeStyle;curved=0;rounded=1;sketch=0;orthogonalLoop=1;jettySize=auto;html=1;exitX=0.25;exitY=1;exitDx=0;exitDy=0;entryX=0.5;entryY=0;entryDx=0;entryDy=0;" parent="ulk52OMEHFEX0CLhAPHe-1" source="ulk52OMEHFEX0CLhAPHe-6" target="ulk52OMEHFEX0CLhAPHe-4" edge="1">
                    <mxGeometry relative="1" as="geometry"/>
                </mxCell>
                <mxCell id="ulk52OMEHFEX0CLhAPHe-13" style="edgeStyle=orthogonalEdgeStyle;rounded=1;orthogonalLoop=1;jettySize=auto;html=1;exitX=0.75;exitY=1;exitDx=0;exitDy=0;entryX=0.5;entryY=0;entryDx=0;entryDy=0;" parent="ulk52OMEHFEX0CLhAPHe-1" source="ulk52OMEHFEX0CLhAPHe-6" target="ulk52OMEHFEX0CLhAPHe-7" edge="1">
                    <mxGeometry relative="1" as="geometry"/>
                </mxCell>
                <mxCell id="ulk52OMEHFEX0CLhAPHe-6" value="TOK_SEMI&lt;br&gt;t_token" style="whiteSpace=wrap;html=1;strokeColor=#FF6666;rounded=1;" parent="ulk52OMEHFEX0CLhAPHe-1" vertex="1">
                    <mxGeometry x="518" y="120" width="120" height="60" as="geometry"/>
                </mxCell>
                <mxCell id="lntMmmNjdpIhoGcwGcDj-24" style="edgeStyle=orthogonalEdgeStyle;curved=0;rounded=1;sketch=0;orthogonalLoop=1;jettySize=auto;html=1;exitX=0.25;exitY=1;exitDx=0;exitDy=0;entryX=0.5;entryY=0;entryDx=0;entryDy=0;" parent="ulk52OMEHFEX0CLhAPHe-1" source="ulk52OMEHFEX0CLhAPHe-7" target="ulk52OMEHFEX0CLhAPHe-2" edge="1">
                    <mxGeometry relative="1" as="geometry"/>
                </mxCell>
                <mxCell id="ulk52OMEHFEX0CLhAPHe-11" style="edgeStyle=orthogonalEdgeStyle;rounded=1;orthogonalLoop=1;jettySize=auto;html=1;exitX=0.75;exitY=1;exitDx=0;exitDy=0;entryX=0.5;entryY=0;entryDx=0;entryDy=0;" parent="ulk52OMEHFEX0CLhAPHe-1" source="ulk52OMEHFEX0CLhAPHe-7" target="lntMmmNjdpIhoGcwGcDj-11" edge="1">
                    <mxGeometry relative="1" as="geometry"/>
                </mxCell>
                <mxCell id="ulk52OMEHFEX0CLhAPHe-7" value="TOK_SEMI&lt;br&gt;t_token" style="whiteSpace=wrap;html=1;strokeColor=#FF6666;rounded=1;" parent="ulk52OMEHFEX0CLhAPHe-1" vertex="1">
                    <mxGeometry x="855" y="220" width="120" height="60" as="geometry"/>
                </mxCell>
                <mxCell id="lntMmmNjdpIhoGcwGcDj-8" value="&lt;font style=&quot;font-size: 16px&quot;&gt;rev&lt;br&gt;t_command&lt;/font&gt;" style="whiteSpace=wrap;html=1;strokeColor=#B3FF66;rounded=1;" parent="ulk52OMEHFEX0CLhAPHe-1" vertex="1">
                    <mxGeometry x="885" y="520" width="120" height="60" as="geometry"/>
                </mxCell>
                <mxCell id="lntMmmNjdpIhoGcwGcDj-9" value="&lt;font style=&quot;font-size: 16px&quot;&gt;diff otot toto&lt;br&gt;t_command&lt;/font&gt;" style="whiteSpace=wrap;html=1;strokeColor=#B3FF66;rounded=1;" parent="ulk52OMEHFEX0CLhAPHe-1" vertex="1">
                    <mxGeometry x="1040" y="420" width="120" height="60" as="geometry"/>
                </mxCell>
                <mxCell id="lntMmmNjdpIhoGcwGcDj-37" style="edgeStyle=orthogonalEdgeStyle;curved=0;rounded=1;sketch=0;orthogonalLoop=1;jettySize=auto;html=1;exitX=0.75;exitY=1;exitDx=0;exitDy=0;entryX=0.5;entryY=0;entryDx=0;entryDy=0;" parent="ulk52OMEHFEX0CLhAPHe-1" source="lntMmmNjdpIhoGcwGcDj-10" target="lntMmmNjdpIhoGcwGcDj-2" edge="1">
                    <mxGeometry relative="1" as="geometry"/>
                </mxCell>
                <mxCell id="lntMmmNjdpIhoGcwGcDj-10" value="&lt;font style=&quot;font-size: 16px&quot;&gt;&amp;gt; lsfile&lt;br&gt;t_redir&lt;br&gt;&lt;/font&gt;" style="whiteSpace=wrap;html=1;strokeColor=#66FFFF;rounded=1;" parent="ulk52OMEHFEX0CLhAPHe-1" vertex="1">
                    <mxGeometry x="290" y="420" width="120" height="60" as="geometry"/>
                </mxCell>
                <mxCell id="ulk52OMEHFEX0CLhAPHe-12" style="edgeStyle=orthogonalEdgeStyle;rounded=1;orthogonalLoop=1;jettySize=auto;html=1;exitX=0.5;exitY=1;exitDx=0;exitDy=0;entryX=0.5;entryY=0;entryDx=0;entryDy=0;" parent="ulk52OMEHFEX0CLhAPHe-1" source="lntMmmNjdpIhoGcwGcDj-11" edge="1">
                    <mxGeometry relative="1" as="geometry">
                        <mxPoint x="1085" y="420" as="targetPoint"/>
                    </mxGeometry>
                </mxCell>
                <mxCell id="lntMmmNjdpIhoGcwGcDj-11" value="&lt;font style=&quot;font-size: 16px&quot;&gt;&amp;gt;&amp;gt; diff&lt;br&gt;t_redir&lt;br&gt;&lt;/font&gt;" style="whiteSpace=wrap;html=1;strokeColor=#66FFFF;rounded=1;" parent="ulk52OMEHFEX0CLhAPHe-1" vertex="1">
                    <mxGeometry x="955" y="320" width="120" height="60" as="geometry"/>
                </mxCell>
                <mxCell id="lntMmmNjdpIhoGcwGcDj-31" style="edgeStyle=orthogonalEdgeStyle;curved=0;rounded=1;sketch=0;orthogonalLoop=1;jettySize=auto;html=1;exitX=0.25;exitY=1;exitDx=0;exitDy=0;entryX=0.5;entryY=0;entryDx=0;entryDy=0;" parent="ulk52OMEHFEX0CLhAPHe-1" source="lntMmmNjdpIhoGcwGcDj-12" target="lntMmmNjdpIhoGcwGcDj-14" edge="1">
                    <mxGeometry relative="1" as="geometry"/>
                </mxCell>
                <mxCell id="lntMmmNjdpIhoGcwGcDj-12" value="&lt;font style=&quot;font-size: 16px&quot;&gt;&amp;gt; utut&lt;br&gt;t_redir&lt;br&gt;&lt;/font&gt;" style="whiteSpace=wrap;html=1;strokeColor=#66FFFF;rounded=1;" parent="ulk52OMEHFEX0CLhAPHe-1" vertex="1">
                    <mxGeometry x="695" y="520" width="120" height="60" as="geometry"/>
                </mxCell>
                <mxCell id="lntMmmNjdpIhoGcwGcDj-29" style="edgeStyle=orthogonalEdgeStyle;curved=0;rounded=1;sketch=0;orthogonalLoop=1;jettySize=auto;html=1;exitX=0.25;exitY=1;exitDx=0;exitDy=0;entryX=0.5;entryY=0;entryDx=0;entryDy=0;" parent="ulk52OMEHFEX0CLhAPHe-1" source="lntMmmNjdpIhoGcwGcDj-13" target="lntMmmNjdpIhoGcwGcDj-12" edge="1">
                    <mxGeometry relative="1" as="geometry"/>
                </mxCell>
                <mxCell id="lntMmmNjdpIhoGcwGcDj-39" style="edgeStyle=orthogonalEdgeStyle;curved=0;rounded=1;sketch=0;orthogonalLoop=1;jettySize=auto;html=1;exitX=0.75;exitY=1;exitDx=0;exitDy=0;entryX=0.5;entryY=0;entryDx=0;entryDy=0;" parent="ulk52OMEHFEX0CLhAPHe-1" source="lntMmmNjdpIhoGcwGcDj-13" target="lntMmmNjdpIhoGcwGcDj-8" edge="1">
                    <mxGeometry relative="1" as="geometry"/>
                </mxCell>
                <mxCell id="lntMmmNjdpIhoGcwGcDj-13" value="&lt;font style=&quot;font-size: 16px&quot;&gt;&amp;gt; itit&lt;br&gt;t_redir&lt;br&gt;&lt;/font&gt;" style="whiteSpace=wrap;html=1;strokeColor=#66FFFF;rounded=1;" parent="ulk52OMEHFEX0CLhAPHe-1" vertex="1">
                    <mxGeometry x="805" y="420" width="120" height="60" as="geometry"/>
                </mxCell>
                <mxCell id="lntMmmNjdpIhoGcwGcDj-14" value="&lt;font style=&quot;font-size: 16px&quot;&gt;&amp;gt;&amp;gt; otot&lt;br&gt;t_redir&lt;br&gt;&lt;/font&gt;" style="whiteSpace=wrap;html=1;strokeColor=#66FFFF;rounded=1;" parent="ulk52OMEHFEX0CLhAPHe-1" vertex="1">
                    <mxGeometry x="615" y="620" width="120" height="60" as="geometry"/>
                </mxCell>
            </root>
        </mxGraphModel>
    </diagram>
    <diagram id="tQ9Nx711Trj_J8aiPWEZ" name="multi">
        &#xa;        &#xa;        &#xa;&#xa;&#xa;
        <mxGraphModel dx="1108" dy="3128" grid="0" gridSize="10" guides="1" tooltips="1" connect="1" arrows="1" fold="1" page="1" pageScale="1" pageWidth="827" pageHeight="1169" background="none" math="0" shadow="0">
            &#xa;            &#xa;            &#xa;&#xa;&#xa;
            <root>
                &#xa;                &#xa;                &#xa;&#xa;&#xa;
                <mxCell id="0"/>
                &#xa;                &#xa;                &#xa;&#xa;&#xa;
                <mxCell id="1" parent="0"/>
                &#xa;                &#xa;                &#xa;&#xa;&#xa;
                <mxCell id="18" style="edgeStyle=orthogonalEdgeStyle;orthogonalLoop=1;jettySize=auto;html=1;exitX=0.25;exitY=1;exitDx=0;exitDy=0;entryX=0.5;entryY=0;entryDx=0;entryDy=0;strokeColor=#FFB366;" parent="1" source="20" target="21" edge="1">
                    &#xa;                    &#xa;                    &#xa;&#xa;&#xa;
                    <mxGeometry relative="1" as="geometry"/>
                    &#xa;                    &#xa;                    &#xa;&#xa;&#xa;
                </mxCell>
                &#xa;                &#xa;                &#xa;&#xa;&#xa;
                <mxCell id="19" style="edgeStyle=orthogonalEdgeStyle;orthogonalLoop=1;jettySize=auto;html=1;exitX=0.75;exitY=1;exitDx=0;exitDy=0;entryX=0.5;entryY=0;entryDx=0;entryDy=0;strokeColor=#007FFF;" parent="1" source="20" target="24" edge="1">
                    &#xa;                    &#xa;                    &#xa;&#xa;&#xa;
                    <mxGeometry relative="1" as="geometry"/>
                    &#xa;                    &#xa;                    &#xa;&#xa;&#xa;
                </mxCell>
                &#xa;                &#xa;                &#xa;&#xa;&#xa;
                <mxCell id="20" value="&lt;font size=&quot;1&quot;&gt;&lt;font color=&quot;#ff3399&quot;&gt;SEMI&lt;br&gt;t_token&lt;/font&gt;&lt;br&gt;&lt;/font&gt;" style="whiteSpace=wrap;html=1;" parent="1" vertex="1">
                    &#xa;                    &#xa;                    &#xa;&#xa;&#xa;
                    <mxGeometry x="339" y="-2190" width="120" height="60" as="geometry"/>
                    &#xa;                    &#xa;                    &#xa;&#xa;&#xa;
                </mxCell>
                &#xa;                &#xa;                &#xa;&#xa;&#xa;
                <mxCell id="30" style="edgeStyle=orthogonalEdgeStyle;rounded=1;orthogonalLoop=1;jettySize=auto;html=1;exitX=0.25;exitY=1;exitDx=0;exitDy=0;entryX=0.5;entryY=0;entryDx=0;entryDy=0;strokeColor=#FFB366;" parent="1" source="21" target="29" edge="1">
                    &#xa;                    &#xa;                    &#xa;&#xa;&#xa;
                    <mxGeometry relative="1" as="geometry"/>
                    &#xa;                    &#xa;                    &#xa;&#xa;&#xa;
                </mxCell>
                &#xa;                &#xa;                &#xa;&#xa;&#xa;
                <mxCell id="21" value="&lt;font style=&quot;font-size: 12px&quot;&gt;&amp;gt; toto&lt;br&gt;t_redir&lt;br&gt;&lt;/font&gt;" style="whiteSpace=wrap;html=1;strokeColor=#FFB366;" parent="1" vertex="1">
                    &#xa;                    &#xa;                    &#xa;&#xa;&#xa;
                    <mxGeometry x="205" y="-2080" width="120" height="60" as="geometry"/>
                    &#xa;                    &#xa;                    &#xa;&#xa;&#xa;
                </mxCell>
                &#xa;                &#xa;                &#xa;&#xa;&#xa;
                <mxCell id="31" style="edgeStyle=orthogonalEdgeStyle;rounded=1;orthogonalLoop=1;jettySize=auto;html=1;exitX=0.75;exitY=1;exitDx=0;exitDy=0;entryX=0.5;entryY=0;entryDx=0;entryDy=0;strokeColor=#007FFF;" parent="1" source="24" target="26" edge="1">
                    &#xa;                    &#xa;                    &#xa;&#xa;&#xa;
                    <mxGeometry relative="1" as="geometry"/>
                    &#xa;                    &#xa;                    &#xa;&#xa;&#xa;
                </mxCell>
                &#xa;                &#xa;                &#xa;&#xa;&#xa;
                <mxCell id="32" style="edgeStyle=orthogonalEdgeStyle;rounded=1;orthogonalLoop=1;jettySize=auto;html=1;exitX=0.25;exitY=1;exitDx=0;exitDy=0;entryX=0.5;entryY=0;entryDx=0;entryDy=0;strokeColor=#007FFF;" parent="1" source="24" target="25" edge="1">
                    &#xa;                    &#xa;                    &#xa;&#xa;&#xa;
                    <mxGeometry relative="1" as="geometry"/>
                    &#xa;                    &#xa;                    &#xa;&#xa;&#xa;
                </mxCell>
                &#xa;                &#xa;                &#xa;&#xa;&#xa;
                <mxCell id="24" value="PIPE&lt;br&gt;t_token" style="whiteSpace=wrap;html=1;strokeColor=#007FFF;" parent="1" vertex="1">
                    &#xa;                    &#xa;                    &#xa;&#xa;&#xa;
                    <mxGeometry x="475" y="-2080" width="120" height="60" as="geometry"/>
                    &#xa;                    &#xa;                    &#xa;&#xa;&#xa;
                </mxCell>
                &#xa;                &#xa;                &#xa;&#xa;&#xa;
                <mxCell id="25" value="&amp;lt; toto&lt;br&gt;t_redir" style="whiteSpace=wrap;html=1;strokeColor=#007FFF;fillColor=#000099;" parent="1" vertex="1">
                    &#xa;                    &#xa;                    &#xa;&#xa;&#xa;
                    <mxGeometry x="400" y="-1970" width="120" height="60" as="geometry"/>
                    &#xa;                    &#xa;                    &#xa;&#xa;&#xa;
                </mxCell>
                &#xa;                &#xa;                &#xa;&#xa;&#xa;
                <mxCell id="26" value="rev&lt;br&gt;t_command" style="whiteSpace=wrap;html=1;strokeColor=#007FFF;fillColor=#66FF66;" parent="1" vertex="1">
                    &#xa;                    &#xa;                    &#xa;&#xa;&#xa;
                    <mxGeometry x="557" y="-1970" width="120" height="60" as="geometry"/>
                    &#xa;                    &#xa;                    &#xa;&#xa;&#xa;
                </mxCell>
                &#xa;                &#xa;                &#xa;&#xa;&#xa;
                <mxCell id="27" value="&lt;p&gt;&lt;span style=&quot;font-size: 22px&quot;&gt;&lt;font color=&quot;#ffb366&quot;&gt;echo -n toto &amp;gt; toto&lt;/font&gt; &lt;font color=&quot;#ff3399&quot;&gt;;&lt;/font&gt; &lt;font color=&quot;#007fff&quot;&gt;&lt;span style=&quot;background-color: rgb(0 , 0 , 153)&quot;&gt;&amp;lt; toto &lt;/span&gt;| &lt;span style=&quot;background-color: rgb(102 , 255 , 102)&quot;&gt;rev&lt;/span&gt;&lt;/font&gt;&lt;/span&gt;&lt;span style=&quot;font-size: 22px ; background-color: rgb(102 , 255 , 102)&quot;&gt;&lt;font color=&quot;#007fff&quot;&gt;&amp;nbsp;&lt;/font&gt;&lt;/span&gt;&lt;/p&gt;" style="text;html=1;strokeColor=none;fillColor=none;align=center;verticalAlign=middle;whiteSpace=wrap;" parent="1" vertex="1">
                    &#xa;                    &#xa;                    &#xa;&#xa;&#xa;
                    <mxGeometry x="209" y="-2268" width="420" height="40" as="geometry"/>
                    &#xa;                    &#xa;                    &#xa;&#xa;&#xa;
                </mxCell>
                &#xa;                &#xa;                &#xa;&#xa;&#xa;
                <mxCell id="29" value="&lt;font style=&quot;font-size: 12px&quot;&gt;echo -n toto&lt;br&gt;t_command&lt;br&gt;&lt;/font&gt;" style="whiteSpace=wrap;html=1;strokeColor=#FFB366;" parent="1" vertex="1">
                    &#xa;                    &#xa;                    &#xa;&#xa;&#xa;
                    <mxGeometry x="151" y="-1980" width="120" height="60" as="geometry"/>
                    &#xa;                    &#xa;                    &#xa;&#xa;&#xa;
                </mxCell>
                &#xa;                &#xa;                &#xa;&#xa;&#xa;
            </root>
            &#xa;            &#xa;            &#xa;&#xa;&#xa;
        </mxGraphModel>
        &#xa;        &#xa;        &#xa;&#xa;&#xa;
    </diagram>
    <diagram name="only_great" id="qjJG7yseXr9q7UEdahsE">
        &#xa;        &#xa;        &#xa;&#xa;&#xa;
        <mxGraphModel dx="1108" dy="790" grid="0" gridSize="10" guides="1" tooltips="1" connect="1" arrows="1" fold="1" page="1" pageScale="1" pageWidth="827" pageHeight="1169" background="none" math="0" shadow="0">
            &#xa;            &#xa;            &#xa;&#xa;&#xa;
            <root>
                &#xa;                &#xa;                &#xa;&#xa;&#xa;
                <mxCell id="cYIlQsapz5qcbEBZL_PZ-0"/>
                &#xa;                &#xa;                &#xa;&#xa;&#xa;
                <mxCell id="cYIlQsapz5qcbEBZL_PZ-1" parent="cYIlQsapz5qcbEBZL_PZ-0"/>
                &#xa;                &#xa;                &#xa;&#xa;&#xa;
                <mxCell id="cYIlQsapz5qcbEBZL_PZ-2" style="edgeStyle=orthogonalEdgeStyle;rounded=1;orthogonalLoop=1;jettySize=auto;html=1;exitX=0.5;exitY=1;exitDx=0;exitDy=0;entryX=0.5;entryY=0;entryDx=0;entryDy=0;strokeColor=#007FFF;" parent="cYIlQsapz5qcbEBZL_PZ-1" source="cYIlQsapz5qcbEBZL_PZ-3" target="cYIlQsapz5qcbEBZL_PZ-19" edge="1">
                    &#xa;                    &#xa;                    &#xa;&#xa;&#xa;
                    <mxGeometry relative="1" as="geometry"/>
                    &#xa;                    &#xa;                    &#xa;&#xa;&#xa;
                </mxCell>
                &#xa;                &#xa;                &#xa;&#xa;&#xa;
                <mxCell id="cYIlQsapz5qcbEBZL_PZ-3" value="&amp;gt; toto&lt;br&gt;t_redir" style="whiteSpace=wrap;html=1;" parent="cYIlQsapz5qcbEBZL_PZ-1" vertex="1">
                    &#xa;                    &#xa;                    &#xa;&#xa;&#xa;
                    <mxGeometry x="389" y="116" width="120" height="60" as="geometry"/>
                    &#xa;                    &#xa;                    &#xa;&#xa;&#xa;
                </mxCell>
                &#xa;                &#xa;                &#xa;&#xa;&#xa;
                <mxCell id="cYIlQsapz5qcbEBZL_PZ-4" value="&lt;p&gt;&lt;span style=&quot;font-size: 22px&quot;&gt;&amp;gt; toto &lt;font color=&quot;#3399ff&quot;&gt;echo &amp;gt; tonton &quot;antoine&quot; &amp;gt; tata &amp;gt; tutu &amp;gt; titi&lt;/font&gt;&lt;/span&gt;&lt;/p&gt;" style="text;html=1;strokeColor=none;fillColor=none;align=center;verticalAlign=middle;whiteSpace=wrap;" parent="cYIlQsapz5qcbEBZL_PZ-1" vertex="1">
                    &#xa;                    &#xa;                    &#xa;&#xa;&#xa;
                    <mxGeometry x="140" y="63" width="548" height="40" as="geometry"/>
                    &#xa;                    &#xa;                    &#xa;&#xa;&#xa;
                </mxCell>
                &#xa;                &#xa;                &#xa;&#xa;&#xa;
                <mxCell id="cYIlQsapz5qcbEBZL_PZ-17" style="edgeStyle=orthogonalEdgeStyle;rounded=1;orthogonalLoop=1;jettySize=auto;html=1;exitX=0.25;exitY=1;exitDx=0;exitDy=0;entryX=0.5;entryY=0;entryDx=0;entryDy=0;strokeColor=#3399FF;" parent="cYIlQsapz5qcbEBZL_PZ-1" source="cYIlQsapz5qcbEBZL_PZ-19" target="cYIlQsapz5qcbEBZL_PZ-21" edge="1">
                    &#xa;                    &#xa;                    &#xa;&#xa;&#xa;
                    <mxGeometry relative="1" as="geometry"/>
                    &#xa;                    &#xa;                    &#xa;&#xa;&#xa;
                </mxCell>
                &#xa;                &#xa;                &#xa;&#xa;&#xa;
                <mxCell id="cYIlQsapz5qcbEBZL_PZ-18" style="edgeStyle=orthogonalEdgeStyle;curved=0;rounded=1;sketch=0;orthogonalLoop=1;jettySize=auto;html=1;exitX=0.75;exitY=1;exitDx=0;exitDy=0;entryX=0.5;entryY=0;entryDx=0;entryDy=0;" parent="cYIlQsapz5qcbEBZL_PZ-1" source="cYIlQsapz5qcbEBZL_PZ-19" target="cYIlQsapz5qcbEBZL_PZ-24" edge="1">
                    &#xa;                    &#xa;                    &#xa;&#xa;&#xa;
                    <mxGeometry relative="1" as="geometry">
                        &#xa;                        &#xa;                        &#xa;&#xa;&#xa;
                        <Array as="points">
                            &#xa;                            &#xa;                            &#xa;&#xa;&#xa;
                            <mxPoint x="382" y="298"/>
                            &#xa;                            &#xa;                            &#xa;&#xa;&#xa;
                            <mxPoint x="471" y="298"/>
                            &#xa;                            &#xa;                            &#xa;&#xa;&#xa;
                        </Array>
                        &#xa;                        &#xa;                        &#xa;&#xa;&#xa;
                    </mxGeometry>
                    &#xa;                    &#xa;                    &#xa;&#xa;&#xa;
                </mxCell>
                &#xa;                &#xa;                &#xa;&#xa;&#xa;
                <mxCell id="cYIlQsapz5qcbEBZL_PZ-19" value="&amp;gt; tonton&lt;br&gt;t_redir" style="whiteSpace=wrap;html=1;strokeColor=#3399FF;" parent="cYIlQsapz5qcbEBZL_PZ-1" vertex="1">
                    &#xa;                    &#xa;                    &#xa;&#xa;&#xa;
                    <mxGeometry x="292" y="218" width="120" height="60" as="geometry"/>
                    &#xa;                    &#xa;                    &#xa;&#xa;&#xa;
                </mxCell>
                &#xa;                &#xa;                &#xa;&#xa;&#xa;
                <mxCell id="cYIlQsapz5qcbEBZL_PZ-20" style="edgeStyle=orthogonalEdgeStyle;rounded=1;orthogonalLoop=1;jettySize=auto;html=1;exitX=0.25;exitY=1;exitDx=0;exitDy=0;entryX=0.5;entryY=0;entryDx=0;entryDy=0;strokeColor=#3399FF;" parent="cYIlQsapz5qcbEBZL_PZ-1" source="cYIlQsapz5qcbEBZL_PZ-21" target="cYIlQsapz5qcbEBZL_PZ-23" edge="1">
                    &#xa;                    &#xa;                    &#xa;&#xa;&#xa;
                    <mxGeometry relative="1" as="geometry"/>
                    &#xa;                    &#xa;                    &#xa;&#xa;&#xa;
                </mxCell>
                &#xa;                &#xa;                &#xa;&#xa;&#xa;
                <mxCell id="cYIlQsapz5qcbEBZL_PZ-21" value="&amp;gt; tata&lt;br&gt;t_redir" style="whiteSpace=wrap;html=1;strokeColor=#3399FF;" parent="cYIlQsapz5qcbEBZL_PZ-1" vertex="1">
                    &#xa;                    &#xa;                    &#xa;&#xa;&#xa;
                    <mxGeometry x="232" y="314" width="120" height="60" as="geometry"/>
                    &#xa;                    &#xa;                    &#xa;&#xa;&#xa;
                </mxCell>
                &#xa;                &#xa;                &#xa;&#xa;&#xa;
                <mxCell id="cYIlQsapz5qcbEBZL_PZ-22" style="edgeStyle=orthogonalEdgeStyle;rounded=1;orthogonalLoop=1;jettySize=auto;html=1;exitX=0.5;exitY=1;exitDx=0;exitDy=0;entryX=0.5;entryY=0;entryDx=0;entryDy=0;strokeColor=#3399FF;" parent="cYIlQsapz5qcbEBZL_PZ-1" source="cYIlQsapz5qcbEBZL_PZ-23" target="cYIlQsapz5qcbEBZL_PZ-25" edge="1">
                    &#xa;                    &#xa;                    &#xa;&#xa;&#xa;
                    <mxGeometry relative="1" as="geometry"/>
                    &#xa;                    &#xa;                    &#xa;&#xa;&#xa;
                </mxCell>
                &#xa;                &#xa;                &#xa;&#xa;&#xa;
                <mxCell id="cYIlQsapz5qcbEBZL_PZ-23" value="&amp;gt; tutu&lt;br&gt;t_redir" style="whiteSpace=wrap;html=1;strokeColor=#3399FF;" parent="cYIlQsapz5qcbEBZL_PZ-1" vertex="1">
                    &#xa;                    &#xa;                    &#xa;&#xa;&#xa;
                    <mxGeometry x="148" y="426" width="120" height="60" as="geometry"/>
                    &#xa;                    &#xa;                    &#xa;&#xa;&#xa;
                </mxCell>
                &#xa;                &#xa;                &#xa;&#xa;&#xa;
                <mxCell id="cYIlQsapz5qcbEBZL_PZ-24" value="echo &quot;antoine&quot;&lt;br&gt;t_command" style="whiteSpace=wrap;html=1;strokeColor=#3399FF;" parent="cYIlQsapz5qcbEBZL_PZ-1" vertex="1">
                    &#xa;                    &#xa;                    &#xa;&#xa;&#xa;
                    <mxGeometry x="411" y="310" width="120" height="60" as="geometry"/>
                    &#xa;                    &#xa;                    &#xa;&#xa;&#xa;
                </mxCell>
                &#xa;                &#xa;                &#xa;&#xa;&#xa;
                <mxCell id="cYIlQsapz5qcbEBZL_PZ-25" value="&amp;gt; titi&lt;br&gt;t_redir" style="whiteSpace=wrap;html=1;strokeColor=#3399FF;" parent="cYIlQsapz5qcbEBZL_PZ-1" vertex="1">
                    &#xa;                    &#xa;                    &#xa;&#xa;&#xa;
                    <mxGeometry x="81" y="525" width="120" height="60" as="geometry"/>
                    &#xa;                    &#xa;                    &#xa;&#xa;&#xa;
                </mxCell>
                &#xa;                &#xa;                &#xa;&#xa;&#xa;
            </root>
            &#xa;            &#xa;            &#xa;&#xa;&#xa;
        </mxGraphModel>
        &#xa;        &#xa;        &#xa;&#xa;&#xa;
    </diagram>
    <diagram name="dgreat_and_great" id="b6APnRWbZsYjo4xrXC1P">
        &#xa;        &#xa;        &#xa;&#xa;&#xa;
        <mxGraphModel dx="2762" dy="790" grid="0" gridSize="10" guides="1" tooltips="1" connect="1" arrows="1" fold="1" page="1" pageScale="1" pageWidth="827" pageHeight="1169" background="none" math="0" shadow="0">
            &#xa;            &#xa;            &#xa;&#xa;&#xa;
            <root>
                &#xa;                &#xa;                &#xa;&#xa;&#xa;
                <mxCell id="gg-0v8IZh3IQ3fUBY3W9-0"/>
                &#xa;                &#xa;                &#xa;&#xa;&#xa;
                <mxCell id="gg-0v8IZh3IQ3fUBY3W9-1" parent="gg-0v8IZh3IQ3fUBY3W9-0"/>
                &#xa;                &#xa;                &#xa;&#xa;&#xa;
                <mxCell id="gg-0v8IZh3IQ3fUBY3W9-26" style="edgeStyle=orthogonalEdgeStyle;curved=0;rounded=1;sketch=0;orthogonalLoop=1;jettySize=auto;html=1;exitX=0.25;exitY=1;exitDx=0;exitDy=0;entryX=0.5;entryY=0;entryDx=0;entryDy=0;" parent="gg-0v8IZh3IQ3fUBY3W9-1" source="gg-0v8IZh3IQ3fUBY3W9-27" target="gg-0v8IZh3IQ3fUBY3W9-31" edge="1">
                    &#xa;                    &#xa;                    &#xa;&#xa;&#xa;
                    <mxGeometry relative="1" as="geometry"/>
                    &#xa;                    &#xa;                    &#xa;&#xa;&#xa;
                </mxCell>
                &#xa;                &#xa;                &#xa;&#xa;&#xa;
                <mxCell id="gg-0v8IZh3IQ3fUBY3W9-27" value="&amp;gt;&amp;gt; toto&lt;br&gt;t_redir" style="whiteSpace=wrap;html=1;strokeColor=#FFFFFF;" parent="gg-0v8IZh3IQ3fUBY3W9-1" vertex="1">
                    &#xa;                    &#xa;                    &#xa;&#xa;&#xa;
                    <mxGeometry x="-1060" y="114" width="120" height="60" as="geometry"/>
                    &#xa;                    &#xa;                    &#xa;&#xa;&#xa;
                </mxCell>
                &#xa;                &#xa;                &#xa;&#xa;&#xa;
                <mxCell id="gg-0v8IZh3IQ3fUBY3W9-28" value="&lt;p&gt;&lt;span style=&quot;font-size: 22px&quot;&gt;&lt;strike&gt;&amp;gt;&amp;gt; toto&lt;/strike&gt; &lt;font color=&quot;#ffffff&quot;&gt;echo &lt;strike&gt;&amp;gt; tonton&lt;/strike&gt; &quot;antoine&quot;&lt;strike&gt; &amp;gt;&amp;gt; tata&lt;/strike&gt; &lt;strike&gt;&amp;gt; tutu&lt;/strike&gt; &lt;strike&gt;&amp;gt; titi&lt;/strike&gt;&lt;/font&gt;&lt;/span&gt;&lt;/p&gt;" style="text;html=1;fillColor=none;align=center;verticalAlign=middle;whiteSpace=wrap;strokeColor=#FFFFFF;" parent="gg-0v8IZh3IQ3fUBY3W9-1" vertex="1">
                    &#xa;                    &#xa;                    &#xa;&#xa;&#xa;
                    <mxGeometry x="-1514" y="46" width="548" height="40" as="geometry"/>
                    &#xa;                    &#xa;                    &#xa;&#xa;&#xa;
                </mxCell>
                &#xa;                &#xa;                &#xa;&#xa;&#xa;
                <mxCell id="gg-0v8IZh3IQ3fUBY3W9-29" style="edgeStyle=orthogonalEdgeStyle;curved=0;rounded=1;sketch=0;orthogonalLoop=1;jettySize=auto;html=1;exitX=0.25;exitY=1;exitDx=0;exitDy=0;entryX=0.5;entryY=0;entryDx=0;entryDy=0;" parent="gg-0v8IZh3IQ3fUBY3W9-1" source="gg-0v8IZh3IQ3fUBY3W9-31" target="gg-0v8IZh3IQ3fUBY3W9-33" edge="1">
                    &#xa;                    &#xa;                    &#xa;&#xa;&#xa;
                    <mxGeometry relative="1" as="geometry"/>
                    &#xa;                    &#xa;                    &#xa;&#xa;&#xa;
                </mxCell>
                &#xa;                &#xa;                &#xa;&#xa;&#xa;
                <mxCell id="gg-0v8IZh3IQ3fUBY3W9-30" style="edgeStyle=orthogonalEdgeStyle;curved=0;rounded=1;sketch=0;orthogonalLoop=1;jettySize=auto;html=1;exitX=0.75;exitY=1;exitDx=0;exitDy=0;entryX=0.5;entryY=0;entryDx=0;entryDy=0;" parent="gg-0v8IZh3IQ3fUBY3W9-1" source="gg-0v8IZh3IQ3fUBY3W9-31" target="gg-0v8IZh3IQ3fUBY3W9-36" edge="1">
                    &#xa;                    &#xa;                    &#xa;&#xa;&#xa;
                    <mxGeometry relative="1" as="geometry"/>
                    &#xa;                    &#xa;                    &#xa;&#xa;&#xa;
                </mxCell>
                &#xa;                &#xa;                &#xa;&#xa;&#xa;
                <mxCell id="gg-0v8IZh3IQ3fUBY3W9-31" value="&amp;gt; tonton&lt;br&gt;t_redir" style="whiteSpace=wrap;html=1;strokeColor=#FFFFFF;" parent="gg-0v8IZh3IQ3fUBY3W9-1" vertex="1">
                    &#xa;                    &#xa;                    &#xa;&#xa;&#xa;
                    <mxGeometry x="-1180" y="214" width="120" height="60" as="geometry"/>
                    &#xa;                    &#xa;                    &#xa;&#xa;&#xa;
                </mxCell>
                &#xa;                &#xa;                &#xa;&#xa;&#xa;
                <mxCell id="gg-0v8IZh3IQ3fUBY3W9-32" style="edgeStyle=orthogonalEdgeStyle;curved=0;rounded=1;sketch=0;orthogonalLoop=1;jettySize=auto;html=1;exitX=0.25;exitY=1;exitDx=0;exitDy=0;entryX=0.5;entryY=0;entryDx=0;entryDy=0;" parent="gg-0v8IZh3IQ3fUBY3W9-1" source="gg-0v8IZh3IQ3fUBY3W9-33" target="gg-0v8IZh3IQ3fUBY3W9-35" edge="1">
                    &#xa;                    &#xa;                    &#xa;&#xa;&#xa;
                    <mxGeometry relative="1" as="geometry"/>
                    &#xa;                    &#xa;                    &#xa;&#xa;&#xa;
                </mxCell>
                &#xa;                &#xa;                &#xa;&#xa;&#xa;
                <mxCell id="gg-0v8IZh3IQ3fUBY3W9-33" value="&amp;gt;&amp;gt; tata&lt;br&gt;t_redir" style="whiteSpace=wrap;html=1;strokeColor=#FFFFFF;" parent="gg-0v8IZh3IQ3fUBY3W9-1" vertex="1">
                    &#xa;                    &#xa;                    &#xa;&#xa;&#xa;
                    <mxGeometry x="-1300" y="314" width="120" height="60" as="geometry"/>
                    &#xa;                    &#xa;                    &#xa;&#xa;&#xa;
                </mxCell>
                &#xa;                &#xa;                &#xa;&#xa;&#xa;
                <mxCell id="gg-0v8IZh3IQ3fUBY3W9-34" style="edgeStyle=orthogonalEdgeStyle;curved=0;rounded=1;sketch=0;orthogonalLoop=1;jettySize=auto;html=1;exitX=0.25;exitY=1;exitDx=0;exitDy=0;entryX=0.5;entryY=0;entryDx=0;entryDy=0;" parent="gg-0v8IZh3IQ3fUBY3W9-1" source="gg-0v8IZh3IQ3fUBY3W9-35" target="gg-0v8IZh3IQ3fUBY3W9-37" edge="1">
                    &#xa;                    &#xa;                    &#xa;&#xa;&#xa;
                    <mxGeometry relative="1" as="geometry"/>
                    &#xa;                    &#xa;                    &#xa;&#xa;&#xa;
                </mxCell>
                &#xa;                &#xa;                &#xa;&#xa;&#xa;
                <mxCell id="gg-0v8IZh3IQ3fUBY3W9-35" value="&amp;gt; tutu&lt;br&gt;t_redir" style="whiteSpace=wrap;html=1;strokeColor=#FFFFFF;" parent="gg-0v8IZh3IQ3fUBY3W9-1" vertex="1">
                    &#xa;                    &#xa;                    &#xa;&#xa;&#xa;
                    <mxGeometry x="-1420" y="416" width="120" height="60" as="geometry"/>
                    &#xa;                    &#xa;                    &#xa;&#xa;&#xa;
                </mxCell>
                &#xa;                &#xa;                &#xa;&#xa;&#xa;
                <mxCell id="gg-0v8IZh3IQ3fUBY3W9-36" value="echo &quot;antoine&quot;&lt;br&gt;t_command" style="whiteSpace=wrap;html=1;strokeColor=#FFFFFF;" parent="gg-0v8IZh3IQ3fUBY3W9-1" vertex="1">
                    &#xa;                    &#xa;                    &#xa;&#xa;&#xa;
                    <mxGeometry x="-1060" y="314" width="120" height="60" as="geometry"/>
                    &#xa;                    &#xa;                    &#xa;&#xa;&#xa;
                </mxCell>
                &#xa;                &#xa;                &#xa;&#xa;&#xa;
                <mxCell id="gg-0v8IZh3IQ3fUBY3W9-37" value="&amp;gt; titi&lt;br&gt;t_redir" style="whiteSpace=wrap;html=1;strokeColor=#FFFFFF;" parent="gg-0v8IZh3IQ3fUBY3W9-1" vertex="1">
                    &#xa;                    &#xa;                    &#xa;&#xa;&#xa;
                    <mxGeometry x="-1540" y="517" width="120" height="60" as="geometry"/>
                    &#xa;                    &#xa;                    &#xa;&#xa;&#xa;
                </mxCell>
                &#xa;                &#xa;                &#xa;&#xa;&#xa;
            </root>
            &#xa;            &#xa;            &#xa;&#xa;&#xa;
        </mxGraphModel>
        &#xa;        &#xa;        &#xa;&#xa;&#xa;
    </diagram>
    <diagram id="hpv9ppi_FPofC1StN-0z" name="Page-5">
        <mxGraphModel dx="1108" dy="790" grid="1" gridSize="10" guides="1" tooltips="1" connect="1" arrows="1" fold="1" page="1" pageScale="1" pageWidth="827" pageHeight="1169" math="0" shadow="0">
            <root>
                <mxCell id="rMgl38o9j8gqq77aFgTm-0"/>
                <mxCell id="rMgl38o9j8gqq77aFgTm-1" parent="rMgl38o9j8gqq77aFgTm-0"/>
                <mxCell id="rMgl38o9j8gqq77aFgTm-21" style="edgeStyle=orthogonalEdgeStyle;rounded=0;orthogonalLoop=1;jettySize=auto;html=1;exitX=1;exitY=0.5;exitDx=0;exitDy=0;entryX=0;entryY=0.5;entryDx=0;entryDy=0;" parent="rMgl38o9j8gqq77aFgTm-1" source="rMgl38o9j8gqq77aFgTm-2" target="rMgl38o9j8gqq77aFgTm-4" edge="1">
                    <mxGeometry relative="1" as="geometry"/>
                </mxCell>
                <mxCell id="rMgl38o9j8gqq77aFgTm-2" value="" style="rounded=1;whiteSpace=wrap;html=1;" parent="rMgl38o9j8gqq77aFgTm-1" vertex="1">
                    <mxGeometry x="370" y="70" width="120" height="60" as="geometry"/>
                </mxCell>
                <mxCell id="rMgl38o9j8gqq77aFgTm-20" style="edgeStyle=orthogonalEdgeStyle;rounded=0;orthogonalLoop=1;jettySize=auto;html=1;exitX=1;exitY=0.5;exitDx=0;exitDy=0;entryX=0;entryY=0.5;entryDx=0;entryDy=0;" parent="rMgl38o9j8gqq77aFgTm-1" source="rMgl38o9j8gqq77aFgTm-3" target="rMgl38o9j8gqq77aFgTm-2" edge="1">
                    <mxGeometry relative="1" as="geometry"/>
                </mxCell>
                <mxCell id="rMgl38o9j8gqq77aFgTm-22" style="edgeStyle=orthogonalEdgeStyle;rounded=0;orthogonalLoop=1;jettySize=auto;html=1;exitX=0.5;exitY=1;exitDx=0;exitDy=0;entryX=0.5;entryY=0;entryDx=0;entryDy=0;" parent="rMgl38o9j8gqq77aFgTm-1" source="rMgl38o9j8gqq77aFgTm-3" target="rMgl38o9j8gqq77aFgTm-11" edge="1">
                    <mxGeometry relative="1" as="geometry"/>
                </mxCell>
                <mxCell id="rMgl38o9j8gqq77aFgTm-3" value="" style="rounded=1;whiteSpace=wrap;html=1;" parent="rMgl38o9j8gqq77aFgTm-1" vertex="1">
                    <mxGeometry x="70" y="70" width="120" height="60" as="geometry"/>
                </mxCell>
                <mxCell id="rMgl38o9j8gqq77aFgTm-24" style="edgeStyle=orthogonalEdgeStyle;rounded=0;orthogonalLoop=1;jettySize=auto;html=1;exitX=0.5;exitY=1;exitDx=0;exitDy=0;entryX=0.5;entryY=0;entryDx=0;entryDy=0;" parent="rMgl38o9j8gqq77aFgTm-1" source="rMgl38o9j8gqq77aFgTm-4" edge="1">
                    <mxGeometry relative="1" as="geometry"/>
                </mxCell>
                <mxCell id="74A4UE9K4cyOxnjFBroj-3" style="edgeStyle=orthogonalEdgeStyle;rounded=0;orthogonalLoop=1;jettySize=auto;html=1;exitX=0.5;exitY=1;exitDx=0;exitDy=0;entryX=0.5;entryY=0;entryDx=0;entryDy=0;" parent="rMgl38o9j8gqq77aFgTm-1" source="rMgl38o9j8gqq77aFgTm-4" target="74A4UE9K4cyOxnjFBroj-2" edge="1">
                    <mxGeometry relative="1" as="geometry"/>
                </mxCell>
                <mxCell id="rMgl38o9j8gqq77aFgTm-4" value="" style="rounded=1;whiteSpace=wrap;html=1;" parent="rMgl38o9j8gqq77aFgTm-1" vertex="1">
                    <mxGeometry x="660" y="70" width="120" height="60" as="geometry"/>
                </mxCell>
                <mxCell id="rMgl38o9j8gqq77aFgTm-11" value="echo toto" style="ellipse;whiteSpace=wrap;html=1;" parent="rMgl38o9j8gqq77aFgTm-1" vertex="1">
                    <mxGeometry x="70" y="250" width="120" height="80" as="geometry"/>
                </mxCell>
                <mxCell id="rMgl38o9j8gqq77aFgTm-12" style="edgeStyle=orthogonalEdgeStyle;rounded=0;orthogonalLoop=1;jettySize=auto;html=1;exitX=1;exitY=0.5;exitDx=0;exitDy=0;entryX=0.5;entryY=0;entryDx=0;entryDy=0;" parent="rMgl38o9j8gqq77aFgTm-1" edge="1">
                    <mxGeometry relative="1" as="geometry">
                        <mxPoint x="520" y="290" as="sourcePoint"/>
                    </mxGeometry>
                </mxCell>
                <mxCell id="rMgl38o9j8gqq77aFgTm-13" style="edgeStyle=orthogonalEdgeStyle;rounded=0;orthogonalLoop=1;jettySize=auto;html=1;exitX=0;exitY=0.5;exitDx=0;exitDy=0;entryX=0.5;entryY=0;entryDx=0;entryDy=0;" parent="rMgl38o9j8gqq77aFgTm-1" edge="1">
                    <mxGeometry relative="1" as="geometry">
                        <mxPoint x="400" y="290" as="sourcePoint"/>
                    </mxGeometry>
                </mxCell>
                <mxCell id="74A4UE9K4cyOxnjFBroj-2" value="echo tata" style="ellipse;whiteSpace=wrap;html=1;" parent="rMgl38o9j8gqq77aFgTm-1" vertex="1">
                    <mxGeometry x="660" y="250" width="120" height="80" as="geometry"/>
                </mxCell>
            </root>
        </mxGraphModel>
    </diagram>
    <diagram id="iPo8vSMt-vL1BVqsuyQp" name="Page-6">
        <mxGraphModel dx="1108" dy="790" grid="1" gridSize="10" guides="1" tooltips="1" connect="1" arrows="1" fold="1" page="1" pageScale="1" pageWidth="827" pageHeight="1169" math="0" shadow="0">
            <root>
                <mxCell id="BVls2cNgXoKtXn97W3BO-0"/>
                <mxCell id="BVls2cNgXoKtXn97W3BO-1" parent="BVls2cNgXoKtXn97W3BO-0"/>
                <mxCell id="BVls2cNgXoKtXn97W3BO-13" style="edgeStyle=orthogonalEdgeStyle;rounded=0;orthogonalLoop=1;jettySize=auto;html=1;exitX=1;exitY=0.5;exitDx=0;exitDy=0;entryX=0;entryY=0.5;entryDx=0;entryDy=0;" parent="BVls2cNgXoKtXn97W3BO-1" source="BVls2cNgXoKtXn97W3BO-8" target="BVls2cNgXoKtXn97W3BO-9" edge="1">
                    <mxGeometry relative="1" as="geometry"/>
                </mxCell>
                <mxCell id="BVls2cNgXoKtXn97W3BO-8" value="ECHO" style="rounded=0;whiteSpace=wrap;html=1;" parent="BVls2cNgXoKtXn97W3BO-1" vertex="1">
                    <mxGeometry x="15" y="350" width="90" height="40" as="geometry"/>
                </mxCell>
                <mxCell id="QG5XYaOdsYd1mB4025JF-0" style="edgeStyle=orthogonalEdgeStyle;rounded=0;orthogonalLoop=1;jettySize=auto;html=1;exitX=1;exitY=0.5;exitDx=0;exitDy=0;" parent="BVls2cNgXoKtXn97W3BO-1" source="BVls2cNgXoKtXn97W3BO-9" target="BVls2cNgXoKtXn97W3BO-23" edge="1">
                    <mxGeometry relative="1" as="geometry"/>
                </mxCell>
                <mxCell id="BVls2cNgXoKtXn97W3BO-9" value="TOTO" style="rounded=0;whiteSpace=wrap;html=1;" parent="BVls2cNgXoKtXn97W3BO-1" vertex="1">
                    <mxGeometry x="145" y="350" width="90" height="40" as="geometry"/>
                </mxCell>
                <mxCell id="BVls2cNgXoKtXn97W3BO-10" value="\n" style="rounded=0;whiteSpace=wrap;html=1;" parent="BVls2cNgXoKtXn97W3BO-1" vertex="1">
                    <mxGeometry x="250" y="500" width="90" height="40" as="geometry"/>
                </mxCell>
                <mxCell id="BVls2cNgXoKtXn97W3BO-16" style="edgeStyle=orthogonalEdgeStyle;rounded=0;orthogonalLoop=1;jettySize=auto;html=1;exitX=1;exitY=0.5;exitDx=0;exitDy=0;entryX=0;entryY=0.5;entryDx=0;entryDy=0;" parent="BVls2cNgXoKtXn97W3BO-1" source="BVls2cNgXoKtXn97W3BO-11" edge="1">
                    <mxGeometry relative="1" as="geometry"/>
                </mxCell>
                <mxCell id="QG5XYaOdsYd1mB4025JF-2" style="edgeStyle=orthogonalEdgeStyle;rounded=0;orthogonalLoop=1;jettySize=auto;html=1;exitX=1;exitY=0.5;exitDx=0;exitDy=0;entryX=0;entryY=0.5;entryDx=0;entryDy=0;" parent="BVls2cNgXoKtXn97W3BO-1" source="BVls2cNgXoKtXn97W3BO-11" target="BVls2cNgXoKtXn97W3BO-12" edge="1">
                    <mxGeometry relative="1" as="geometry"/>
                </mxCell>
                <mxCell id="BVls2cNgXoKtXn97W3BO-11" value="ECHO" style="rounded=0;whiteSpace=wrap;html=1;" parent="BVls2cNgXoKtXn97W3BO-1" vertex="1">
                    <mxGeometry x="20" y="500" width="90" height="40" as="geometry"/>
                </mxCell>
                <mxCell id="QG5XYaOdsYd1mB4025JF-3" style="edgeStyle=orthogonalEdgeStyle;rounded=0;orthogonalLoop=1;jettySize=auto;html=1;exitX=1;exitY=0.5;exitDx=0;exitDy=0;" parent="BVls2cNgXoKtXn97W3BO-1" source="BVls2cNgXoKtXn97W3BO-12" target="BVls2cNgXoKtXn97W3BO-10" edge="1">
                    <mxGeometry relative="1" as="geometry"/>
                </mxCell>
                <mxCell id="BVls2cNgXoKtXn97W3BO-12" value="TATA" style="rounded=0;whiteSpace=wrap;html=1;" parent="BVls2cNgXoKtXn97W3BO-1" vertex="1">
                    <mxGeometry x="140" y="500" width="80" height="40" as="geometry"/>
                </mxCell>
                <mxCell id="BVls2cNgXoKtXn97W3BO-17" value="TOKENS" style="rounded=1;whiteSpace=wrap;html=1;" parent="BVls2cNgXoKtXn97W3BO-1" vertex="1">
                    <mxGeometry x="560" y="140" width="120" height="60" as="geometry"/>
                </mxCell>
                <mxCell id="BVls2cNgXoKtXn97W3BO-19" value="DONE" style="rounded=1;whiteSpace=wrap;html=1;" parent="BVls2cNgXoKtXn97W3BO-1" vertex="1">
                    <mxGeometry y="220" width="120" height="60" as="geometry"/>
                </mxCell>
                <mxCell id="BVls2cNgXoKtXn97W3BO-23" value="\n" style="rounded=0;whiteSpace=wrap;html=1;" parent="BVls2cNgXoKtXn97W3BO-1" vertex="1">
                    <mxGeometry x="265" y="350" width="90" height="40" as="geometry"/>
                </mxCell>
                <mxCell id="HDtps_foXHyKrZVjUV3l-1" value="\n" style="rounded=0;whiteSpace=wrap;html=1;" parent="BVls2cNgXoKtXn97W3BO-1" vertex="1">
                    <mxGeometry x="15" y="430" width="90" height="40" as="geometry"/>
                </mxCell>
            </root>
        </mxGraphModel>
    </diagram>
</mxfile>
